# xmcd
#
# Track frame offsets:
#	150
#	10282
#	26502
#	109060
#	125115
#	158244
#	188103
#	210743
#	237942
#	271659
#
# Disc length: 3858 seconds
#
# Revision: 1
# Processed by: cddbd v1.5.2PL0 Copyright (c) Steve Scherf et al.
# Submitted via: audiograbber 1.83.01
#
DISCID=830f100a
DTITLE=Grateful Dead - 71-11-06 Harding Theatre, San Francisco CA
DYEAR=1900
DGENRE=
TTITLE0=Cryptical Envelopment
TTITLE1=Drums
TTITLE2=The Other One
TTITLE3=Cryptical Envelopment
TTITLE4=Comes A Time
TTITLE5=Sugar Magnolia
TTITLE6=Brown-Eyed Women
TTITLE7=Not Fade Away
TTITLE8=Going Down The Road Feeling Bad
TTITLE9=Not Fade Away
EXTD=
EXTT0=
EXTT1=
EXTT2=
EXTT3=
EXTT4=
EXTT5=
EXTT6=
EXTT7=
EXTT8=
EXTT9=
PLAYORDER=
